<!--
Licensed to the Apache Software Foundation (ASF) under one
or more contributor license agreements.  See the NOTICE file
distributed with this work for additional information
regarding copyright ownership.  The ASF licenses this file
to you under the Apache License, Version 2.0 (the
"License"); you may not use this file except in compliance
with the License.  You may obtain a copy of the License at

  http://www.apache.org/licenses/LICENSE-2.0

Unless required by applicable law or agreed to in writing,
software distributed under the License is distributed on an
"AS IS" BASIS, WITHOUT WARRANTIES OR CONDITIONS OF ANY
KIND, either express or implied.  See the License for the
specific language governing permissions and limitations
under the License.
-->
<svg width="100%" height="24" viewBox="0 0 56 24" fill="none" xmlns="http://www.w3.org/2000/svg" style="stroke:currentColor;stroke-width:0.50mm;fill:currentColor">
<path fill-rule="evenodd" clip-rule="evenodd" d="M 20.984 15.08 L 20.984 4.171 L 21.283 4.171 L 25.736 14.568 L 25.778 14.568 L 30.232 4.171 L 30.53 4.171 L 30.53 15.08 L 30.189 15.08 L 30.189 5.236 L 30.146 5.236 L 25.928 15.08 L 25.587 15.08 L 21.368 5.236 L 21.325 5.236 L 21.325 15.08 L 20.984 15.08 Z M 8.733 6.898 L 8.392 6.898 A 2.881 2.881 0 0 0 8.138 5.879 A 2.616 2.616 0 0 0 7.537 5.06 A 2.636 2.636 0 0 0 6.221 4.408 A 3.775 3.775 0 0 0 5.494 4.341 Q 4.663 4.341 4.008 4.661 A 2.729 2.729 0 0 0 3.297 5.153 A 2.461 2.461 0 0 0 2.975 5.537 A 2.197 2.197 0 0 0 2.598 6.723 A 2.679 2.679 0 0 0 2.597 6.813 A 2.184 2.184 0 0 0 2.656 7.33 A 1.913 1.913 0 0 0 2.735 7.58 A 1.884 1.884 0 0 0 3.09 8.148 A 2.186 2.186 0 0 0 3.159 8.221 A 2.584 2.584 0 0 0 3.521 8.526 A 3.456 3.456 0 0 0 3.878 8.743 A 4.933 4.933 0 0 0 4.35 8.963 Q 4.589 9.059 4.861 9.145 A 8.018 8.018 0 0 0 4.898 9.156 L 6.134 9.54 A 8.803 8.803 0 0 1 6.717 9.741 Q 7.068 9.877 7.359 10.03 A 4.106 4.106 0 0 1 7.817 10.309 A 3.034 3.034 0 0 1 8.214 10.64 A 2.292 2.292 0 0 1 8.62 11.183 A 2.1 2.1 0 0 1 8.717 11.391 A 2.307 2.307 0 0 1 8.866 12.003 A 2.855 2.855 0 0 1 8.882 12.31 A 2.832 2.832 0 0 1 8.713 13.299 A 2.612 2.612 0 0 1 8.445 13.828 A 2.895 2.895 0 0 1 7.439 14.76 A 3.534 3.534 0 0 1 7.225 14.872 A 3.739 3.739 0 0 1 6.164 15.195 A 4.942 4.942 0 0 1 5.409 15.25 A 4.808 4.808 0 0 1 4.537 15.175 A 3.572 3.572 0 0 1 3.667 14.901 A 3.115 3.115 0 0 1 2.892 14.393 A 2.752 2.752 0 0 1 2.487 13.937 A 2.7 2.7 0 0 1 2.006 12.597 A 3.225 3.225 0 0 1 2 12.523 L 2.341 12.523 A 2.456 2.456 0 0 0 2.573 13.412 A 2.317 2.317 0 0 0 2.783 13.764 A 2.516 2.516 0 0 0 3.6 14.483 A 3.092 3.092 0 0 0 3.84 14.606 Q 4.509 14.909 5.409 14.909 Q 6.347 14.909 7.052 14.582 A 2.809 2.809 0 0 0 7.743 14.135 A 2.43 2.43 0 0 0 8.15 13.668 A 2.331 2.331 0 0 0 8.533 12.529 A 2.898 2.898 0 0 0 8.541 12.31 A 2.281 2.281 0 0 0 8.477 11.759 A 1.853 1.853 0 0 0 8.286 11.279 A 1.952 1.952 0 0 0 7.931 10.836 Q 7.756 10.67 7.529 10.523 A 3.369 3.369 0 0 0 7.481 10.493 A 4.384 4.384 0 0 0 7.022 10.247 Q 6.766 10.127 6.46 10.018 A 9.205 9.205 0 0 0 6.048 9.881 L 4.813 9.497 Q 3.901 9.21 3.316 8.791 A 2.999 2.999 0 0 1 2.892 8.427 A 2.25 2.25 0 0 1 2.256 6.813 A 2.622 2.622 0 0 1 2.459 5.775 A 2.519 2.519 0 0 1 2.676 5.372 A 2.882 2.882 0 0 1 3.695 4.439 A 3.44 3.44 0 0 1 3.83 4.368 A 3.46 3.46 0 0 1 4.986 4.029 A 4.338 4.338 0 0 1 5.494 4 A 3.997 3.997 0 0 1 6.349 4.088 A 3.121 3.121 0 0 1 7.14 4.373 Q 7.849 4.746 8.264 5.401 Q 8.68 6.056 8.733 6.898 Z M 14.635 4.597 L 10.885 15.08 L 10.523 15.08 L 14.422 4.171 L 14.891 4.171 L 18.79 15.08 L 18.428 15.08 L 14.678 4.597 L 14.635 4.597 Z M 46.446 4.597 L 42.696 15.08 L 42.334 15.08 L 46.233 4.171 L 46.702 4.171 L 50.601 15.08 L 50.239 15.08 L 46.489 4.597 L 46.446 4.597 Z M 37.71 15.08 L 33.939 15.08 L 33.939 4.171 L 37.348 4.171 A 4.225 4.225 0 0 1 38.074 4.23 Q 38.496 4.303 38.845 4.468 A 2.603 2.603 0 0 1 38.917 4.503 A 2.341 2.341 0 0 1 39.918 5.457 A 2.651 2.651 0 0 1 40.209 6.279 A 3.625 3.625 0 0 1 40.267 6.94 Q 40.267 7.58 40.073 8.118 A 2.504 2.504 0 0 1 39.76 8.722 A 2.205 2.205 0 0 1 39.505 9.02 A 1.941 1.941 0 0 1 38.605 9.519 L 38.605 9.561 A 1.985 1.985 0 0 1 39.67 9.971 A 2.415 2.415 0 0 1 40.309 10.715 A 2.927 2.927 0 0 1 40.419 10.93 Q 40.693 11.527 40.693 12.288 A 3.375 3.375 0 0 1 40.61 13.054 A 2.648 2.648 0 0 1 40.339 13.759 Q 39.985 14.387 39.316 14.733 A 2.978 2.978 0 0 1 38.505 15.009 Q 38.158 15.075 37.763 15.079 A 5.017 5.017 0 0 1 37.71 15.08 Z M 34.28 9.71 L 34.28 14.739 L 37.71 14.739 A 3.457 3.457 0 0 0 38.538 14.645 A 2.417 2.417 0 0 0 39.631 14.065 Q 40.352 13.391 40.352 12.288 Q 40.352 11.532 40.011 10.951 A 2.438 2.438 0 0 0 39.077 10.041 A 2.613 2.613 0 0 0 38.131 9.736 A 3.294 3.294 0 0 0 37.71 9.71 L 34.28 9.71 Z M 34.28 4.511 L 34.28 9.369 L 37.71 9.369 Q 38.456 9.369 38.946 9.034 Q 39.436 8.698 39.681 8.144 Q 39.926 7.59 39.926 6.94 A 3.116 3.116 0 0 0 39.844 6.204 A 2.056 2.056 0 0 0 39.234 5.145 Q 38.567 4.535 37.436 4.512 A 4.388 4.388 0 0 0 37.348 4.511 L 34.28 4.511 Z M 12.121 11.394 L 12.121 11.053 L 17.192 11.053 L 17.192 11.394 L 12.121 11.394 Z M 43.932 11.394 L 43.932 11.053 L 49.003 11.053 L 49.003 11.394 L 43.932 11.394 Z" fill="currentColor"/>
</svg>