<!--
Licensed to the Apache Software Foundation (ASF) under one
or more contributor license agreements.  See the NOTICE file
distributed with this work for additional information
regarding copyright ownership.  The ASF licenses this file
to you under the Apache License, Version 2.0 (the
"License"); you may not use this file except in compliance
with the License.  You may obtain a copy of the License at

  http://www.apache.org/licenses/LICENSE-2.0

Unless required by applicable law or agreed to in writing,
software distributed under the License is distributed on an
"AS IS" BASIS, WITHOUT WARRANTIES OR CONDITIONS OF ANY
KIND, either express or implied.  See the License for the
specific language governing permissions and limitations
under the License.
-->
<svg width="48" height="24" viewBox="0 0 48 24" fill="none" xmlns="http://www.w3.org/2000/svg" style="stroke:currentColor;stroke-width:0.50mm;fill:currentColor">
<path fill-rule="evenodd" clip-rule="evenodd" d="M 8.733 6.898 L 8.392 6.898 A 2.881 2.881 0 0 0 8.138 5.879 A 2.616 2.616 0 0 0 7.537 5.06 A 2.636 2.636 0 0 0 6.221 4.408 A 3.775 3.775 0 0 0 5.494 4.341 Q 4.663 4.341 4.008 4.661 A 2.729 2.729 0 0 0 3.297 5.153 A 2.461 2.461 0 0 0 2.975 5.537 A 2.197 2.197 0 0 0 2.598 6.723 A 2.679 2.679 0 0 0 2.597 6.813 A 2.184 2.184 0 0 0 2.656 7.33 A 1.913 1.913 0 0 0 2.735 7.58 A 1.884 1.884 0 0 0 3.09 8.148 A 2.186 2.186 0 0 0 3.159 8.221 A 2.584 2.584 0 0 0 3.521 8.526 A 3.456 3.456 0 0 0 3.878 8.743 A 4.933 4.933 0 0 0 4.35 8.963 Q 4.589 9.059 4.861 9.145 A 8.018 8.018 0 0 0 4.898 9.156 L 6.134 9.54 A 8.803 8.803 0 0 1 6.717 9.741 Q 7.068 9.877 7.359 10.03 A 4.106 4.106 0 0 1 7.817 10.309 A 3.034 3.034 0 0 1 8.214 10.64 A 2.292 2.292 0 0 1 8.62 11.183 A 2.1 2.1 0 0 1 8.717 11.391 A 2.307 2.307 0 0 1 8.866 12.003 A 2.855 2.855 0 0 1 8.882 12.31 A 2.832 2.832 0 0 1 8.713 13.299 A 2.612 2.612 0 0 1 8.445 13.828 A 2.895 2.895 0 0 1 7.439 14.76 A 3.534 3.534 0 0 1 7.225 14.872 A 3.739 3.739 0 0 1 6.164 15.195 A 4.942 4.942 0 0 1 5.409 15.25 A 4.808 4.808 0 0 1 4.537 15.175 A 3.572 3.572 0 0 1 3.667 14.901 A 3.115 3.115 0 0 1 2.892 14.393 A 2.752 2.752 0 0 1 2.487 13.937 A 2.7 2.7 0 0 1 2.006 12.597 A 3.225 3.225 0 0 1 2 12.523 L 2.341 12.523 A 2.456 2.456 0 0 0 2.573 13.412 A 2.317 2.317 0 0 0 2.783 13.764 A 2.516 2.516 0 0 0 3.6 14.483 A 3.092 3.092 0 0 0 3.84 14.606 Q 4.509 14.909 5.409 14.909 Q 6.347 14.909 7.052 14.582 A 2.809 2.809 0 0 0 7.743 14.135 A 2.43 2.43 0 0 0 8.15 13.668 A 2.331 2.331 0 0 0 8.533 12.529 A 2.898 2.898 0 0 0 8.541 12.31 A 2.281 2.281 0 0 0 8.477 11.759 A 1.853 1.853 0 0 0 8.286 11.279 A 1.952 1.952 0 0 0 7.931 10.836 Q 7.756 10.67 7.529 10.523 A 3.369 3.369 0 0 0 7.481 10.493 A 4.384 4.384 0 0 0 7.022 10.247 Q 6.766 10.127 6.46 10.018 A 9.205 9.205 0 0 0 6.048 9.881 L 4.813 9.497 Q 3.901 9.21 3.316 8.791 A 2.999 2.999 0 0 1 2.892 8.427 A 2.25 2.25 0 0 1 2.256 6.813 A 2.622 2.622 0 0 1 2.459 5.775 A 2.519 2.519 0 0 1 2.676 5.372 A 2.882 2.882 0 0 1 3.695 4.439 A 3.44 3.44 0 0 1 3.83 4.368 A 3.46 3.46 0 0 1 4.986 4.029 A 4.338 4.338 0 0 1 5.494 4 A 3.997 3.997 0 0 1 6.349 4.088 A 3.121 3.121 0 0 1 7.14 4.373 Q 7.849 4.746 8.264 5.401 Q 8.68 6.056 8.733 6.898 Z M 30.061 15.08 L 29.72 15.08 L 29.72 4.171 L 32.916 4.171 A 3.484 3.484 0 0 1 33.83 4.286 A 2.923 2.923 0 0 1 34.538 4.581 A 2.944 2.944 0 0 1 35.646 5.71 A 3.152 3.152 0 0 1 36.016 6.856 A 3.982 3.982 0 0 1 36.048 7.367 A 3.638 3.638 0 0 1 35.935 8.292 A 3.029 3.029 0 0 1 35.646 9.01 Q 35.244 9.726 34.538 10.134 A 3.047 3.047 0 0 1 33.334 10.519 A 3.815 3.815 0 0 1 32.916 10.541 L 29.891 10.541 L 29.891 10.2 L 32.916 10.2 A 3.156 3.156 0 0 0 33.722 10.101 A 2.614 2.614 0 0 0 34.365 9.838 A 2.593 2.593 0 0 0 35.35 8.837 A 2.811 2.811 0 0 0 35.682 7.794 A 3.545 3.545 0 0 0 35.707 7.367 A 3.335 3.335 0 0 0 35.61 6.544 A 2.747 2.747 0 0 0 35.35 5.886 Q 34.994 5.241 34.365 4.876 A 2.699 2.699 0 0 0 33.314 4.534 A 3.393 3.393 0 0 0 32.916 4.511 L 30.061 4.511 L 30.061 15.08 Z M 12.078 15.08 L 11.737 15.08 L 11.737 4.171 L 17.597 4.171 L 17.597 4.511 L 12.078 4.511 L 12.078 9.455 L 17.085 9.455 L 17.085 9.796 L 12.078 9.796 L 12.078 15.08 Z M 23.243 4.511 L 19.727 4.511 L 19.727 4.171 L 27.099 4.171 L 27.099 4.511 L 23.584 4.511 L 23.584 15.08 L 23.243 15.08 L 23.243 4.511 Z" fill="currentColor"/>
</svg>